<?xml version="1.0" standalone="no"?><svg xmlns="http://www.w3.org/2000/svg" viewBox="0 0 1440 320"><path fill="#0099ff" fill-opacity="1" d="M0,192L15,186.7C30,181,60,171,90,176C120,181,150,203,180,213.3C210,224,240,224,270,202.7C300,181,330,139,360,128C390,117,420,139,450,176C480,213,510,267,540,261.3C570,256,600,192,630,138.7C660,85,690,43,720,48C750,53,780,107,810,138.7C840,171,870,181,900,208C930,235,960,277,990,266.7C1020,256,1050,192,1080,165.3C1110,139,1140,149,1170,165.3C1200,181,1230,203,1260,208C1290,213,1320,203,1350,202.7C1380,203,1410,213,1425,218.7L1440,224L1440,0L1425,0C1410,0,1380,0,1350,0C1320,0,1290,0,1260,0C1230,0,1200,0,1170,0C1140,0,1110,0,1080,0C1050,0,1020,0,990,0C960,0,930,0,900,0C870,0,840,0,810,0C780,0,750,0,720,0C690,0,660,0,630,0C600,0,570,0,540,0C510,0,480,0,450,0C420,0,390,0,360,0C330,0,300,0,270,0C240,0,210,0,180,0C150,0,120,0,90,0C60,0,30,0,15,0L0,0Z"></path></svg>