<?xml version="1.0" standalone="no"?><svg xmlns="http://www.w3.org/2000/svg" viewBox="0 0 1440 320"><path fill="#ff0000" fill-opacity="1" d="M0,96L15,112C30,128,60,160,90,181.3C120,203,150,213,180,181.3C210,149,240,75,270,48C300,21,330,43,360,80C390,117,420,171,450,202.7C480,235,510,245,540,234.7C570,224,600,192,630,165.3C660,139,690,117,720,138.7C750,160,780,224,810,213.3C840,203,870,117,900,74.7C930,32,960,32,990,42.7C1020,53,1050,75,1080,74.7C1110,75,1140,53,1170,37.3C1200,21,1230,11,1260,21.3C1290,32,1320,64,1350,90.7C1380,117,1410,139,1425,149.3L1440,160L1440,320L1425,320C1410,320,1380,320,1350,320C1320,320,1290,320,1260,320C1230,320,1200,320,1170,320C1140,320,1110,320,1080,320C1050,320,1020,320,990,320C960,320,930,320,900,320C870,320,840,320,810,320C780,320,750,320,720,320C690,320,660,320,630,320C600,320,570,320,540,320C510,320,480,320,450,320C420,320,390,320,360,320C330,320,300,320,270,320C240,320,210,320,180,320C150,320,120,320,90,320C60,320,30,320,15,320L0,320Z"></path></svg>